<?xml version="1.0" standalone="no"?>
<!DOCTYPE svg PUBLIC "-//W3C//DTD SVG 20010904//EN"
 "http://www.w3.org/TR/2001/REC-SVG-20010904/DTD/svg10.dtd">
<svg version="1.0" xmlns="http://www.w3.org/2000/svg"
 width="1280.000000pt" height="1020.000000pt" viewBox="0 0 1280.000000 1020.000000"
 preserveAspectRatio="xMidYMid meet">
<metadata>
Created by potrace 1.16, written by Peter Selinger 2001-2019
</metadata>
<g transform="translate(0.000000,1020.000000) scale(0.100000,-0.100000)"
fill='#ff5757' stroke="none">
<path d="M3000 9888 c-321 -45 -588 -295 -640 -598 -8 -47 -10 -942 -8 -3180
3 -2969 4 -3118 21 -3175 97 -323 388 -568 730 -614 53 -7 535 -11 1463 -11
l1384 0 0 -34 c0 -61 38 -258 74 -384 135 -467 425 -889 809 -1175 511 -382
1139 -530 1765 -417 826 149 1519 772 1756 1577 191 650 90 1332 -282 1892
-346 523 -907 884 -1517 976 -60 9 -120 19 -132 21 l-23 4 -2 1984 -3 1984
-30 44 c-18 25 -49 52 -75 66 l-44 22 -2567 0 c-1682 0 -2585 3 -2619 10 -118
22 -206 81 -256 172 -25 45 -29 64 -29 128 0 63 4 82 27 121 51 87 141 149
247 169 36 7 927 10 2625 10 l2571 0 45 24 c128 67 148 246 37 341 -22 19 -57
40 -76 45 -47 13 -5159 11 -5251 -2z m-75 -1411 l80 -22 2488 -2 2487 -3 0
-1840 0 -1840 -22 -4 c-13 -3 -63 -10 -113 -16 -128 -16 -337 -72 -473 -126
-303 -121 -526 -268 -764 -505 l-137 -136 -3 711 c-3 697 -3 712 -24 746 -25
44 -78 80 -116 80 l-28 0 2 582 3 582 30 6 c66 14 116 53 151 120 18 33 19 72
22 648 l3 612 -61 0 -60 0 0 -475 0 -475 -30 0 -30 0 0 475 0 475 -70 0 -70 0
0 -475 0 -475 -25 0 -25 0 0 475 0 475 -70 0 -70 0 0 -475 0 -475 -30 0 -30 0
0 475 0 475 -70 0 -70 0 0 -475 0 -475 -25 0 -25 0 0 475 0 475 -60 0 -60 0 0
-612 c0 -575 2 -616 19 -654 24 -53 82 -100 143 -114 l48 -12 0 -579 c0 -576
0 -579 -20 -579 -39 0 -95 -37 -118 -78 l-22 -40 0 -1144 0 -1145 23 -44 c13
-24 43 -57 66 -74 36 -25 54 -30 118 -33 l75 -4 -6 -42 c-4 -22 -9 -61 -12
-86 -3 -25 -7 -55 -10 -68 l-4 -22 -1388 0 c-1170 0 -1395 2 -1441 15 -137 36
-239 117 -294 232 l-32 68 -3 2738 -2 2737 37 -15 c21 -9 74 -26 118 -38z
m5546 -4141 c373 -62 702 -224 974 -479 474 -444 678 -1089 543 -1717 -152
-710 -717 -1272 -1428 -1419 -595 -124 -1222 63 -1653 492 -567 564 -712 1396
-368 2102 278 569 809 950 1441 1031 125 16 365 11 491 -10z"/>
<path d="M4410 6793 l0 -1280 -38 -7 c-46 -7 -86 -36 -110 -79 -16 -30 -17
-111 -20 -1136 -2 -729 1 -1123 8 -1160 11 -58 42 -107 94 -145 26 -20 43 -21
279 -24 246 -2 253 -2 292 20 21 13 53 43 70 66 l30 44 3 1136 c1 626 0 1151
-3 1168 -10 54 -76 114 -127 114 l-28 0 0 243 0 243 43 11 c28 8 50 23 67 45
l25 33 0 760 c0 714 -1 763 -19 815 -44 133 -146 259 -268 333 -76 46 -142 67
-230 74 l-68 6 0 -1280z"/>
<path d="M7985 4204 c-285 -43 -554 -147 -766 -297 -361 -257 -596 -618 -691
-1062 -20 -96 -23 -137 -23 -325 0 -239 14 -335 80 -535 194 -592 709 -1031
1330 -1135 185 -31 453 -25 635 14 315 69 581 212 819 441 232 223 387 491
465 803 90 357 60 739 -81 1072 -189 442 -561 788 -1015 943 -186 64 -278 78
-513 82 -115 2 -223 1 -240 -1z m343 -315 c674 -73 1197 -620 1238 -1295 23
-385 -124 -764 -407 -1044 -268 -267 -596 -403 -969 -404 -368 0 -707 143
-971 408 -371 372 -496 908 -329 1407 130 389 456 718 850 857 201 70 388 93
588 71z"/>
<path d="M7870 3315 c-336 -83 -544 -424 -465 -765 22 -91 40 -135 91 -212 63
-95 149 -171 247 -217 107 -51 161 -63 282 -62 108 0 186 16 275 57 l54 25
201 -199 c110 -110 211 -207 225 -216 31 -20 130 -22 168 -2 15 8 34 22 44 32
24 28 39 97 32 146 -7 47 -31 73 -322 349 l-133 126 25 54 c80 172 73 421 -17
578 -36 62 -116 156 -165 194 -61 46 -164 95 -239 113 -73 17 -231 17 -303 -1z
m280 -348 c158 -79 214 -267 128 -430 -113 -212 -418 -207 -544 10 -22 36 -28
62 -32 123 -6 100 14 163 74 229 100 111 238 136 374 68z"/>
<path d="M3143 9379 c-55 -13 -125 -76 -142 -127 -8 -23 -12 -65 -9 -101 5
-70 38 -121 104 -158 l39 -23 2326 3 2326 2 41 29 c53 37 81 82 88 143 12 94
-28 172 -110 216 l-41 22 -2290 1 c-1396 1 -2306 -2 -2332 -7z"/>
</g>
</svg>
